# xmcd
#
# Track frame offsets:
#	180
#	9373
#	18698
#	26984
#	32801
#	37742
#	43550
#	46032
#	47707
#	50130
#	54424
#	60925
#	71054
#	74432
#	81186
#	86542
#	92149
#	99053
#	122976
#	146532
#	156200
#
# Disc length: 2292 seconds
#
# Revision: 0
# Processed by: cddbd v1.4PL0 Copyright (c) Steve Scherf et al.
# Submitted via: dBpowerAMP V4.0
#
DISCID=1408f215
DTITLE=Mambo mania - Non stop
DYEAR=1900
DGENRE=
TTITLE0=Mambo # 5
TTITLE1=Mamjo jumbo
TTITLE2=Patricia
TTITLE3=Tu ve tu ve
TTITLE4=Kumba mambo
TTITLE5=Suavecito pollitto
TTITLE6=Suavecito pollitto 2
TTITLE7=Asi asi
TTITLE8=Guaglionne
TTITLE9=Mambo # 5
TTITLE10=Mucho mombo
TTITLE11=Cerez rosi
TTITLE12=Rockambo baby
TTITLE13=El cumbanchero
TTITLE14=Perfidez
TTITLE15=No caramelas
TTITLE16=mucho mumbo
TTITLE17=Mambo #2
TTITLE18=Mambo #8
TTITLE19=Mambo italiano
TTITLE20=Mucho mambo sway
EXTD=
EXTT0=
EXTT1=
EXTT2=
EXTT3=
EXTT4=
EXTT5=
EXTT6=
EXTT7=
EXTT8=
EXTT9=
EXTT10=
EXTT11=
EXTT12=
EXTT13=
EXTT14=
EXTT15=
EXTT16=
EXTT17=
EXTT18=
EXTT19=
EXTT20=
PLAYORDER=
